<?xml version="1.0" encoding="UTF-8"?><svg xmlns="http://www.w3.org/2000/svg" width="500" height="125" viewBox="0 0 500 125"><defs><style>.g{fill:#8cc63f;}</style></defs><g id="a"/><g id="b"/><g id="c"/><g id="d"/><g id="e"/><g id="f"><g><rect class="g" x="0" y="0" width="500" height="123.62" rx="40.93" ry="40.93"/><g><path d="M125.89,96.67c.12-.52,.3-1.01,.53-1.47,.23-.46,.48-.98,.75-1.55,.27-.57,.56-1.26,.87-2.05,.3-.79,.61-1.77,.91-2.95l1.78-6.9c.43-1.67,.87-3.37,1.32-5.11s.99-3.7,1.6-5.89c.49-1.75,1.07-3.59,1.76-5.5,.68-1.91,1.4-3.89,2.14-5.93s1.5-4.14,2.26-6.29c.76-2.16,1.45-4.38,2.05-6.68,.03-.09,.05-.2,.05-.34,0-.23-.08-.37-.23-.43-.15-.06-.35-.09-.59-.09-.76,0-1.39-.11-1.89-.32s-.9-.5-1.19-.84-.5-.74-.62-1.19c-.12-.45-.18-.91-.18-1.4,0-1.26,.16-2.28,.48-3.04,.32-.76,.73-1.35,1.23-1.77,.5-.42,1.05-.72,1.64-.91,.59-.19,1.17-.34,1.73-.45,.56-.11,1.06-.24,1.48-.37,.43-.13,.73-.37,.91-.71,.3-.6,.59-1.24,.84-1.92s.58-1.3,.98-1.88c.39-.57,.88-1.05,1.46-1.42,.58-.37,1.34-.56,2.28-.56,.67,0,1.26,.17,1.78,.52s.97,.78,1.35,1.29c.38,.52,.71,1.07,.98,1.66,.27,.59,.52,1.13,.73,1.62,3.13,.09,5.85,.26,8.15,.52,2.3,.26,4.02,.49,5.18,.69,2.28,.4,4.57,1.01,6.87,1.81,2.3,.8,4.37,1.85,6.21,3.13,1.84,1.28,3.35,2.79,4.52,4.53,1.17,1.74,1.76,3.73,1.76,5.97,0,1.15-.14,2.34-.41,3.58l-.32,1.51c-.24,1.21-.75,2.33-1.53,3.36-.78,1.04-1.65,1.97-2.62,2.8-2.71,2.36-5.67,4.33-8.9,5.93-3.23,1.59-6.59,2.94-10.09,4.03-3.5,1.09-7.07,2.01-10.73,2.76s-7.26,1.45-10.82,2.11l-1.28,.17c-.7,.09-1.11,.33-1.23,.73-.61,1.98-1.09,3.72-1.44,5.22s-.68,2.92-.98,4.29c-.3,1.37-.61,2.73-.91,4.1-.3,1.37-.68,2.88-1.14,4.55-.15,.55-.43,1.19-.82,1.94-.4,.75-.87,1.45-1.42,2.11-.55,.66-1.18,1.23-1.89,1.7-.71,.47-1.47,.71-2.26,.71-.55,0-1.02-.14-1.42-.43s-.72-.65-.98-1.1c-.26-.45-.46-.93-.59-1.44-.14-.52-.21-1.01-.21-1.47v-.5c0-.16,.03-.31,.09-.45Zm18.12-31.86c-.06,.2-.15,.45-.25,.75s-.21,.62-.3,.95c-.09,.33-.17,.63-.23,.91-.06,.27-.09,.47-.09,.58,0,.14,.02,.27,.07,.37,.04,.1,.14,.15,.3,.15,.09,0,.38-.04,.87-.11,.49-.07,1.07-.17,1.76-.28,.69-.12,1.42-.24,2.21-.39,.79-.14,1.55-.29,2.28-.43,1.98-.4,4.09-.91,6.34-1.53,2.25-.62,4.5-1.31,6.73-2.09s4.37-1.61,6.41-2.5c2.04-.89,3.85-1.84,5.43-2.85,1.67-1.06,3.01-2.13,4.02-3.19,1-1.06,1.51-2.2,1.51-3.41,0-.72-.1-1.36-.3-1.92-.2-.56-.42-1.07-.66-1.53-.91-1.41-2.05-2.51-3.42-3.32-1.37-.8-2.86-1.41-4.47-1.81s-3.3-.66-5.07-.78c-1.77-.11-3.5-.17-5.2-.17-.46,0-1.15,.03-2.08,.09-.93,.06-1.9,.13-2.92,.22-1.02,.09-1.96,.19-2.83,.32-.87,.13-1.45,.28-1.76,.45-.15,.09-.28,.23-.39,.43-.11,.2-.19,.37-.25,.52-.24,.58-.58,1.37-1,2.39-.43,1.02-.88,2.16-1.37,3.43-.49,1.27-1,2.6-1.53,4.01-.53,1.41-1.04,2.78-1.53,4.12-.49,1.34-.94,2.59-1.35,3.75-.41,1.16-.72,2.12-.94,2.87Z"/><path d="M193.25,76.45c1.37-3.97,2.68-7.78,3.92-11.43,1.25-3.65,2.35-7.03,3.31-10.13s1.72-5.85,2.28-8.24c.56-2.39,.87-4.28,.94-5.69,.37-1.35,1.01-2.43,1.94-3.23,.93-.8,2-1.21,3.22-1.21,.73,0,1.35,.16,1.87,.47,.52,.32,.94,.73,1.25,1.25,.32,.52,.55,1.1,.71,1.75,.15,.65,.23,1.3,.23,1.96,0,.49-.03,.93-.09,1.34-.06,.4-.14,.79-.23,1.16-.7,2.65-1.54,5.38-2.51,8.19-.97,2.82-1.97,5.67-2.99,8.56-1.02,2.89-2.03,5.79-3.04,8.69s-1.9,5.75-2.69,8.54l-.82,2.93c-.43,1.5-.79,2.92-1.09,4.27-.3,1.35-.46,2.44-.46,3.28,0,.46,.09,.83,.27,1.1,.18,.27,.53,.41,1.05,.41,1.25,0,2.71-.19,4.38-.58,1.67-.39,3.41-.86,5.2-1.42,1.79-.56,3.58-1.18,5.36-1.85,1.78-.67,3.42-1.31,4.91-1.92,.79-.32,1.47-.59,2.03-.82s1.26-.51,2.1-.84c.84-.33,1.96-.77,3.35-1.32,1.4-.55,3.33-1.31,5.8-2.29,.43-.14,.8-.27,1.12-.37,.32-.1,.62-.15,.89-.15,.49,0,.91,.09,1.25,.26,.35,.17,.62,.4,.82,.69s.34,.62,.43,.99c.09,.37,.14,.75,.14,1.12,0,.63-.05,1.19-.16,1.66-.11,.47-.22,.87-.34,1.19-.37,.55-.84,1.04-1.42,1.49-.58,.45-1.19,.83-1.83,1.16-.64,.33-1.26,.61-1.87,.84-.61,.23-1.11,.4-1.51,.52-.49,.17-1.13,.4-1.94,.69-.81,.29-1.68,.6-2.62,.95-.94,.34-1.92,.7-2.92,1.06s-1.95,.7-2.83,1.01c-.88,.32-1.67,.6-2.35,.84-.68,.25-1.16,.41-1.44,.5-1.31,.46-2.76,.98-4.36,1.55-1.6,.58-3.19,1.12-4.77,1.64-1.58,.52-3.08,.96-4.5,1.32-1.42,.36-2.59,.54-3.54,.54-1.16,0-2.06-.09-2.72-.26-.65-.17-1.24-.41-1.76-.71s-1.04-.67-1.57-1.1c-.53-.43-1.24-.91-2.12-1.42-.79-.46-1.35-1.09-1.69-1.9-.34-.8-.5-1.67-.5-2.59,0-.46,.04-.99,.11-1.6s.17-1.24,.3-1.9c.12-.66,.26-1.31,.41-1.94,.15-.63,.32-1.19,.5-1.68l2.56-7.33Z"/><path d="M284.62,99.17c-.64,0-1.2-.12-1.69-.35-.49-.23-.89-.53-1.21-.91-.32-.37-.56-.8-.73-1.29-.17-.49-.25-.98-.25-1.47,0-.43,.12-1.03,.37-1.79,.24-.76,.55-1.62,.94-2.57,.38-.95,.8-1.94,1.25-2.97,.46-1.04,.9-2.03,1.32-2.98,.43-.95,.79-1.82,1.09-2.63,.3-.8,.52-1.44,.64-1.9,.12-.52,.27-1.13,.46-1.85,.18-.72,.39-1.5,.62-2.35s.46-1.74,.68-2.67c.23-.93,.46-1.88,.71-2.82-.43,.09-.95,.17-1.58,.24-.62,.07-1.29,.14-1.98,.19-1,.09-1.99,.22-2.97,.39-.97,.17-1.97,.37-2.99,.58-1.02,.22-2.08,.45-3.17,.69s-2.27,.5-3.51,.75c-1.83,.37-3.65,.79-5.48,1.25-1.83,.46-3.73,.69-5.71,.69-.61,0-1.17-.15-1.69-.45-.52-.3-1.1-.52-1.73-.67-.61,.92-1.19,1.91-1.73,2.95-.55,1.05-1.05,2.13-1.51,3.23-.46,1.11-.87,2.2-1.23,3.28-.37,1.08-.69,2.09-.96,3.04-.15,.52-.28,1.19-.39,2s-.21,1.65-.3,2.5c-.09,.85-.18,1.66-.27,2.44-.09,.78-.18,1.39-.27,1.85-.09,.43-.27,.86-.55,1.27-.27,.42-.61,.8-1,1.14-.4,.34-.84,.62-1.32,.84-.49,.21-.97,.32-1.46,.32-.85,0-1.54-.24-2.08-.71-.53-.47-.96-1.06-1.28-1.77-.32-.7-.54-1.47-.66-2.31-.12-.83-.18-1.6-.18-2.29,0-1.75,.23-3.57,.68-5.45s1.07-3.79,1.85-5.73c.78-1.94,1.69-3.9,2.74-5.86s2.18-3.93,3.4-5.89c1-1.75,2.25-3.78,3.74-6.08,1.49-2.3,3.16-4.66,5-7.09,1.84-2.43,3.83-4.81,5.98-7.14,2.15-2.33,4.37-4.4,6.69-6.23,2.31-1.83,4.68-3.3,7.12-4.42,2.43-1.12,4.85-1.68,7.26-1.68,2.53,0,4.63,.43,6.32,1.29s3.03,2.03,4.04,3.49c1,1.47,1.71,3.18,2.12,5.13,.41,1.96,.62,4.03,.62,6.21,0,1.93-.13,3.91-.39,5.95-.26,2.04-.58,4.04-.96,5.99-.38,1.96-.79,3.84-1.23,5.65s-.84,3.45-1.21,4.92l-1.6,5.86c-.06,.17-.18,.52-.34,1.04-.17,.52-.38,1.14-.64,1.88-.26,.73-.55,1.52-.87,2.37-.32,.85-.64,1.68-.96,2.5s-.62,1.57-.91,2.26c-.29,.69-.54,1.25-.75,1.68l.05-.04c-.21,.75-.44,1.51-.68,2.29-.24,.78-.58,1.47-1,2.09-.43,.62-.97,1.12-1.64,1.51-.67,.39-1.54,.58-2.6,.58Zm2.33-53.98c-1.37,0-2.73,.27-4.08,.8s-2.69,1.23-3.99,2.09c-1.31,.86-2.58,1.87-3.81,3.02-1.23,1.15-2.4,2.33-3.51,3.54-1.11,1.21-2.15,2.42-3.13,3.64s-1.86,2.35-2.65,3.38c-.12,.17-.28,.4-.48,.67-.2,.27-.4,.58-.59,.91-.2,.33-.39,.68-.57,1.04s-.34,.68-.46,.97h4.7c1.7,0,3.65-.11,5.84-.34,2.19-.23,4.36-.5,6.5-.82,2.14-.32,4.11-.64,5.91-.97,1.79-.33,3.15-.58,4.06-.75,.12-.37,.24-.88,.34-1.51,.11-.63,.21-1.34,.3-2.11,.09-.78,.16-1.6,.21-2.48,.04-.88,.07-1.77,.07-2.7,0-.75-.03-1.6-.09-2.57-.06-.96-.24-1.88-.55-2.74-.3-.86-.77-1.59-1.39-2.18-.62-.59-1.5-.88-2.62-.88Z"/><path d="M312.55,105.29c0-.69,.19-1.39,.57-2.09,.38-.71,.9-1.44,1.55-2.2s1.42-1.56,2.28-2.39c.87-.83,1.77-1.71,2.72-2.63,1.79-1.72,3.68-3.52,5.66-5.39,1.98-1.87,3.86-3.79,5.66-5.78,.76-.86,1.37-1.57,1.83-2.11s.8-1,1.03-1.36c.23-.36,.38-.67,.46-.93,.08-.26,.13-.52,.16-.78-1.28-1.55-2.41-3.23-3.4-5.04-.99-1.81-1.87-3.7-2.65-5.67-.78-1.97-1.48-3.96-2.1-5.97-.62-2.01-1.21-3.98-1.76-5.91-.52-1.75-1.01-3.52-1.48-5.3s-1.09-3.32-1.85-4.61c-.58-.98-1.07-1.99-1.48-3.04-.41-1.05-.62-2.21-.62-3.47,0-.55,.07-1.19,.21-1.92,.14-.73,.38-1.42,.73-2.05,.35-.63,.81-1.17,1.37-1.62,.56-.45,1.26-.67,2.08-.67,.88,0,1.7,.29,2.46,.86,.76,.58,1.44,1.3,2.05,2.18,.61,.88,1.12,1.83,1.55,2.85,.42,1.02,.76,1.96,1,2.82,.3,1.24,.68,2.77,1.12,4.61,.44,1.84,.88,3.72,1.32,5.65,.44,1.93,.87,3.75,1.3,5.48,.43,1.72,.81,3.1,1.14,4.14,.39,1.29,.82,2.51,1.28,3.64,.46,1.14,.91,2.11,1.37,2.93,.46,.82,.91,1.47,1.35,1.94,.44,.47,.86,.71,1.25,.71,.3,0,.78-.39,1.41-1.16,2.5-3.13,5.09-6.49,7.78-10.07,2.69-3.58,5.32-7.12,7.87-10.63,.94-1.29,1.78-2.49,2.51-3.58,.73-1.09,1.39-2.13,1.99-3.13,.59-.99,1.13-1.95,1.62-2.89,.49-.93,.94-1.88,1.37-2.82l1.19-4.53c.12-.46,.33-.93,.62-1.4,.29-.47,.62-.91,1-1.29,.38-.39,.82-.7,1.32-.95s1.06-.37,1.67-.37c.79,0,1.48,.15,2.05,.45,.58,.3,1.05,.7,1.41,1.19,.37,.49,.64,1.06,.82,1.7s.27,1.32,.27,2c0,.78-.16,1.67-.48,2.67s-.74,2.04-1.25,3.1c-.52,1.06-1.1,2.11-1.73,3.15-.64,1.03-1.26,1.97-1.87,2.8-4.35,5.86-8.77,11.81-13.26,17.83-4.49,6.02-9.04,11.79-13.67,17.31-4.11,4.92-8.13,9.47-12.07,13.67-3.94,4.2-7.54,7.86-10.79,11-.7,.66-1.49,1.28-2.37,1.85-.88,.57-1.81,.86-2.78,.86-.52,0-.95-.11-1.3-.32s-.63-.5-.84-.84-.37-.74-.48-1.19c-.11-.45-.16-.88-.16-1.32Z"/><path d="M384.66,91.71c0,1.98-.81,3.7-2.42,5.15s-3.45,2.18-5.52,2.18c-1.58,0-2.93-.52-4.04-1.57-1.11-1.05-1.67-2.32-1.67-3.82,0-1.98,.84-3.73,2.53-5.24,1.69-1.51,3.55-2.26,5.59-2.26,1.58,0,2.9,.53,3.95,1.6s1.58,2.39,1.58,3.97Zm15.15-53.59c0,1.21-.62,3.03-1.87,5.48-.94,1.87-2.81,6.32-5.59,13.34-2.78,7.03-4.48,11.38-5.09,13.04-.61,1.67-1.16,3.71-1.64,6.12-.39,1.87-1.76,2.8-4.11,2.8-3.01,0-4.52-1.41-4.52-4.22,0-2.96,1.86-8.65,5.59-17.05,3.73-8.41,6.59-14.17,8.6-17.29,2.01-3.12,3.94-4.68,5.8-4.68s2.83,.82,2.83,2.46Z"/></g></g></g></svg>